<?xml version="1.0" standalone="no"?>
<!DOCTYPE svg PUBLIC "-//W3C//DTD SVG 20010904//EN"
 "http://www.w3.org/TR/2001/REC-SVG-20010904/DTD/svg10.dtd">
<svg version="1.0" xmlns="http://www.w3.org/2000/svg"
 width="500.000000pt" height="500.000000pt" viewBox="0 0 500.000000 500.000000"
 preserveAspectRatio="xMidYMid meet">

<g transform="translate(0.000000,500.000000) scale(0.100000,-0.100000)"
fill="#000000" stroke="none">
<path d="M0 2500 l0 -2500 2500 0 2500 0 0 2500 0 2500 -2500 0 -2500 0 0
-2500z m2570 1939 c38 -14 1838 -1320 1859 -1350 11 -15 11 -25 3 -44 l-12
-25 -1920 0 -1920 0 -12 24 c-6 14 -8 31 -5 38 7 18 1814 1333 1858 1352 41
18 104 20 149 5z m-1280 -2444 l0 -915 -230 0 -230 0 0 908 c0 500 3 912 7
915 3 4 107 7 230 7 l223 0 0 -915z m1440 0 l0 -915 -230 0 -230 0 0 915 0
915 230 0 230 0 0 -915z m1418 -2 l2 -913 -230 0 -230 0 0 915 0 915 228 -2
227 -3 3 -912z m222 -1263 l0 -230 -1870 0 -1870 0 0 230 0 230 1870 0 1870 0
0 -230z"/>
</g>
</svg>
